<?xml version="1.0" encoding="UTF-8"?>
<svg width="100%" height="100%" viewBox="0 0 20 20" version="1.1" xmlns="http://www.w3.org/2000/svg" xmlns:xlink="http://www.w3.org/1999/xlink">
    <!-- Generator: Sketch 58 (84663) - https://sketch.com -->
    <title>remove</title>
    <desc>Created with Sketch.</desc>
    <g id="remove" stroke="none" stroke-width="1" fill="none" fill-rule="evenodd">
        <rect id="Rectangle" x="0" y="0" width="20" height="20"></rect>
        <g id="noun_Delete_1365685" transform="translate(1.500000, 0.000000)" fill="#88a5bf" fill-rule="nonzero">
            <path d="M10.727,0 L6.273,0 C5.46824222,0 4.81585714,0.643577264 4.81585714,1.43747005 L4.81585714,3.064207 L1.7,3.064207 C0.761115925,3.064207 0,3.81504714 0,4.74125539 L0,5.50790609 C0,6.43411434 0.761115925,7.18495448 1.7,7.18495448 L1.73157143,7.18495448 L1.73157143,18.0833733 C1.73157143,19.141897 2.6014182,20 3.67442857,20 L13.328,20 C14.4010104,20 15.2708571,19.141897 15.2708571,18.0833733 L15.2708571,7.18495448 L15.3,7.18495448 C16.2388841,7.18495448 17,6.43411434 17,5.50790609 L17,4.74125539 C17,3.81504714 16.2388841,3.064207 15.3,3.064207 L12.1841429,3.064207 L12.1841429,1.43747005 C12.1841429,0.643577264 11.5317578,0 10.727,0 Z M5.78728571,1.43747005 C5.78728571,1.17283912 6.00474741,0.958313368 6.273,0.958313368 L10.727,0.958313368 C10.9952526,0.958313368 11.2127143,1.17283912 11.2127143,1.43747005 L11.2127143,3.064207 L5.78728571,3.064207 L5.78728571,1.43747005 Z M14.2872857,18.0833733 C14.2872857,18.6126351 13.8523623,19.0416866 13.3158571,19.0416866 L3.67442857,19.0416866 C3.13792339,19.0416866 2.703,18.6126351 2.703,18.0833733 L2.703,7.18495448 L14.2994286,7.18495448 L14.2872857,18.0833733 Z M15.3,4.02252036 C15.7023789,4.02252036 16.0285714,4.344309 16.0285714,4.74125539 L16.0285714,5.50790609 C16.0285714,5.90485248 15.7023789,6.22664111 15.3,6.22664111 L1.7,6.22664111 C1.29762111,6.22664111 0.971428571,5.90485248 0.971428571,5.50790609 L0.971428571,4.74125539 C0.971428571,4.344309 1.29762111,4.02252036 1.7,4.02252036 L15.3,4.02252036 Z" id="Shape"></path>
            <path d="M10.5,17 C10.7761424,17 11,16.7901569 11,16.5313023 L11,10.4686977 C11,10.2098431 10.7761424,10 10.5,10 C10.2238576,10 10,10.2098431 10,10.4686977 L10,16.5313023 C10,16.7901569 10.2238576,17 10.5,17 Z" id="Path"></path>
            <path d="M6.5,17 C6.77614237,17 7,16.7901569 7,16.5313023 L7,10.4686977 C7,10.2098431 6.77614237,10 6.5,10 C6.22385763,10 6,10.2098431 6,10.4686977 L6,16.5313023 C6,16.7901569 6.22385763,17 6.5,17 Z" id="Path"></path>
        </g>
    </g>
</svg>
